# xmcd
#
# Track frame offsets: 
#        150
#        16692
#        31087
#        44080
#        60107
#        73662
#        92792
#        109297
#        128900
#        142817
#        160322
#        173997
#        189647
#        206035
#        223370
#        242137
#        258867
#        275947
#        294625
#        312887
#
# Disc length: 4408 seconds
#
# Revision: 6
# Processed by: cddbd v1.5.1PL2 Copyright (c) Steve Scherf et al.
# Submitted via: ExactAudioCopy v0.95b4
#
DISCID=32113614
DTITLE=Kenny Rogers - Through The Years: A Retrospective [Disc 2]
DYEAR=1998
DGENRE=Country
TTITLE0=Lucille
TTITLE1=Daytime Friends
TTITLE2=Love Or Something Like It
TTITLE3=The Gambler
TTITLE4=Every Time Two Fools Collide (Kenny Rogers and Dottie West)
TTITLE5=She Believes In Me
TTITLE6=You Decorated My Life
TTITLE7=Coward Of The County
TTITLE8=All I Ever Need Is You (Kenny Rogers and Dottie West)
TTITLE9=Lady
TTITLE10=What Are We Doin' In Love (Kenny Rogers and Dottie West)
TTITLE11=I Don't Need You
TTITLE12=Love Will Turn You Around
TTITLE13=We've Got Tonight (Kenny Rogers and Sheena Easton)
TTITLE14=Islands In The Stream (Kenny Rogers and Dolly Parton)
TTITLE15=Crazy
TTITLE16=Real Love (Dolly Parton duet with Kenny Rogers)
TTITLE17=Morning Desire
TTITLE18=Tomb Of The Unknown Love
TTITLE19=Make No Mistake, She's Mine (Kenny Rogers duet with Ronnie Mi
TTITLE19=lsap)
EXTD=YEAR: 1998
EXTT0=
EXTT1=
EXTT2=
EXTT3=
EXTT4=
EXTT5=
EXTT6=
EXTT7=
EXTT8=
EXTT9=
EXTT10=
EXTT11=
EXTT12=
EXTT13=
EXTT14=
EXTT15=
EXTT16=
EXTT17=
EXTT18=
EXTT19=
PLAYORDER=
